<?xml version="1.0" encoding="UTF-8" standalone="no"?>
<!-- Created with Inkscape (http://www.inkscape.org/) -->

<svg
   width="210mm"
   height="297mm"
   viewBox="0 0 210 297"
   version="1.1"
   id="svg5"
   inkscape:version="1.2.2 (732a01da63, 2022-12-09)"
   sodipodi:docname="esquemas_motivacion.svg"
   xmlns:inkscape="http://www.inkscape.org/namespaces/inkscape"
   xmlns:sodipodi="http://sodipodi.sourceforge.net/DTD/sodipodi-0.dtd"
   xmlns="http://www.w3.org/2000/svg"
   xmlns:svg="http://www.w3.org/2000/svg">
  <sodipodi:namedview
     id="namedview7"
     pagecolor="#ffffff"
     bordercolor="#000000"
     borderopacity="0.25"
     inkscape:showpageshadow="2"
     inkscape:pageopacity="0.0"
     inkscape:pagecheckerboard="0"
     inkscape:deskcolor="#d1d1d1"
     inkscape:document-units="mm"
     showgrid="true"
     inkscape:zoom="0.97386897"
     inkscape:cx="137.0821"
     inkscape:cy="670.008"
     inkscape:window-width="1920"
     inkscape:window-height="974"
     inkscape:window-x="-11"
     inkscape:window-y="-11"
     inkscape:window-maximized="1"
     inkscape:current-layer="layer1">
    <inkscape:grid
       type="xygrid"
       id="grid234" />
  </sodipodi:namedview>
  <defs
     id="defs2">
    <marker
       style="overflow:visible"
       id="marker3517"
       refX="0"
       refY="0"
       orient="auto-start-reverse"
       inkscape:stockid="TriangleStart"
       markerWidth="5.3244081"
       markerHeight="6.155385"
       viewBox="0 0 5.3244081 6.1553851"
       inkscape:isstock="true"
       inkscape:collect="always"
       preserveAspectRatio="xMidYMid">
      <path
         transform="scale(0.5)"
         style="fill:context-stroke;fill-rule:evenodd;stroke:context-stroke;stroke-width:1pt"
         d="M 5.77,0 -2.88,5 V -5 Z"
         id="path3515" />
    </marker>
    <marker
       style="overflow:visible"
       id="marker3471"
       refX="0"
       refY="0"
       orient="auto-start-reverse"
       inkscape:stockid="TriangleStart"
       markerWidth="5.3244081"
       markerHeight="6.155385"
       viewBox="0 0 5.3244081 6.1553851"
       inkscape:isstock="true"
       inkscape:collect="always"
       preserveAspectRatio="xMidYMid">
      <path
         transform="scale(0.5)"
         style="fill:context-stroke;fill-rule:evenodd;stroke:context-stroke;stroke-width:1pt"
         d="M 5.77,0 -2.88,5 V -5 Z"
         id="path3469" />
    </marker>
    <marker
       style="overflow:visible"
       id="TriangleStart"
       refX="0"
       refY="0"
       orient="auto-start-reverse"
       inkscape:stockid="TriangleStart"
       markerWidth="5.3244081"
       markerHeight="6.155385"
       viewBox="0 0 5.3244081 6.1553851"
       inkscape:isstock="true"
       inkscape:collect="always"
       preserveAspectRatio="xMidYMid">
      <path
         transform="scale(0.5)"
         style="fill:context-stroke;fill-rule:evenodd;stroke:context-stroke;stroke-width:1pt"
         d="M 5.77,0 -2.88,5 V -5 Z"
         id="path135" />
    </marker>
    <clipPath
       id="clipPath7504">
      <path
         clip-rule="nonzero"
         d="M 0,1 H 10 V 8.109375 H 0 Z m 0,0"
         id="path3187" />
    </clipPath>
    <clipPath
       id="clipPath74">
      <path
         clip-rule="nonzero"
         d="M 0,1 H 10 V 8.109375 H 0 Z m 0,0"
         id="path962" />
    </clipPath>
    <clipPath
       id="clipPath2584">
      <path
         clip-rule="nonzero"
         d="M 0,1 H 10 V 8.109375 H 0 Z m 0,0"
         id="path8311" />
    </clipPath>
    <clipPath
       id="clipPath8954">
      <path
         clip-rule="nonzero"
         d="M 0,1 H 10 V 8.109375 H 0 Z m 0,0"
         id="path4250" />
    </clipPath>
    <clipPath
       id="clipPath3253">
      <path
         clip-rule="nonzero"
         d="M 0,1 H 10 V 8.109375 H 0 Z m 0,0"
         id="path1855" />
    </clipPath>
    <clipPath
       id="clipPath2324">
      <path
         clip-rule="nonzero"
         d="M 0,0 H 24.90625 V 6.421875 H 0 Z m 0,0"
         id="path1303" />
    </clipPath>
    <clipPath
       id="clipPath6211">
      <path
         clip-rule="nonzero"
         d="M 0,1 H 10 V 8.109375 H 0 Z m 0,0"
         id="path3344" />
    </clipPath>
    <clipPath
       id="clipPath1477">
      <path
         clip-rule="nonzero"
         d="M 0,1 H 10 V 8.109375 H 0 Z m 0,0"
         id="path3654" />
    </clipPath>
    <clipPath
       id="clipPath8837">
      <path
         clip-rule="nonzero"
         d="M 0,1 H 10 V 8.109375 H 0 Z m 0,0"
         id="path1737" />
    </clipPath>
    <clipPath
       id="clipPath1310">
      <path
         clip-rule="nonzero"
         d="M 0,1 H 10 V 8.109375 H 0 Z m 0,0"
         id="path6499" />
    </clipPath>
    <clipPath
       id="clipPath5859">
      <path
         clip-rule="nonzero"
         d="M 0,1 H 10 V 8.109375 H 0 Z m 0,0"
         id="path5278" />
    </clipPath>
  </defs>
  <g
     inkscape:label="Capa 1"
     inkscape:groupmode="layer"
     id="layer1">
    <path
       style="opacity:0.95;fill:#f6dc6d;fill-opacity:0.921569;stroke:#000000;stroke-width:0.2;stroke-linecap:square;stroke-linejoin:bevel;stroke-miterlimit:3.5;stroke-dasharray:none;stroke-dashoffset:0;stroke-opacity:1;paint-order:markers fill stroke"
       d="m 58.140094,128.37007 h 37.220527 l -0.135842,15.48591 z"
       id="path3992"
       inkscape:export-filename="nisq.pdf"
       inkscape:export-xdpi="96"
       inkscape:export-ydpi="96" />
    <rect
       style="opacity:0.95;fill:#f57d7d;fill-opacity:0.921569;stroke:#000000;stroke-width:0.2;stroke-linecap:square;stroke-linejoin:bevel;stroke-miterlimit:3.5;stroke-opacity:1;paint-order:markers fill stroke"
       id="rect790"
       width="34.099285"
       height="29.776842"
       x="36.426022"
       y="24.232998"
       inkscape:export-filename="CQ.pdf"
       inkscape:export-xdpi="96"
       inkscape:export-ydpi="96" />
    <rect
       style="opacity:0.95;fill:#f6dc6d;fill-opacity:0.92156899;stroke:#000000;stroke-width:0.2;stroke-linecap:square;stroke-linejoin:bevel;stroke-miterlimit:3.5;stroke-opacity:1;paint-order:markers fill stroke"
       id="rect790-0"
       width="34.099285"
       height="29.776842"
       x="75.832314"
       y="24.232998" />
    <rect
       style="opacity:0.95;fill:#f57d7d;fill-opacity:0.921569;stroke:#000000;stroke-width:0.2;stroke-linecap:square;stroke-linejoin:bevel;stroke-miterlimit:3.5;stroke-opacity:1;paint-order:markers fill stroke"
       id="rect790-6"
       width="34.099285"
       height="29.776842"
       x="36.426018"
       y="58.764534" />
    <rect
       style="opacity:0.95;fill:#f57d7d;fill-opacity:0.921569;stroke:#000000;stroke-width:0.2;stroke-linecap:square;stroke-linejoin:bevel;stroke-miterlimit:3.5;stroke-opacity:1;paint-order:markers fill stroke"
       id="rect790-67"
       width="34.099285"
       height="29.776842"
       x="75.832314"
       y="58.76453" />
    <text
       xml:space="preserve"
       style="font-size:14.1111px;font-family:'Times New Roman';-inkscape-font-specification:'Times New Roman, ';text-align:center;text-anchor:middle;opacity:0.95;fill:#000000;fill-opacity:0.921569;stroke:none;stroke-width:0.2;stroke-linecap:square;stroke-linejoin:bevel;stroke-miterlimit:3.5;stroke-opacity:1;paint-order:markers fill stroke"
       x="53.465328"
       y="43.792965"
       id="text1002"><tspan
         sodipodi:role="line"
         id="tspan1000"
         style="font-size:14.1111px;fill:#000000;fill-opacity:0.921569;stroke:none;stroke-width:0.2"
         x="53.465328"
         y="43.792965">CC</tspan></text>
    <text
       xml:space="preserve"
       style="font-size:14.1111px;font-family:'Times New Roman';-inkscape-font-specification:'Times New Roman, ';text-align:center;text-anchor:middle;opacity:0.95;fill:#000000;fill-opacity:0.921569;stroke:none;stroke-width:0.2;stroke-linecap:square;stroke-linejoin:bevel;stroke-miterlimit:3.5;stroke-opacity:1;paint-order:markers fill stroke"
       x="92.895737"
       y="42.51828"
       id="text1056"><tspan
         sodipodi:role="line"
         id="tspan1054"
         style="font-size:14.1111px;fill:#000000;fill-opacity:0.921569;stroke:none;stroke-width:0.2"
         x="92.895737"
         y="42.51828">CQ</tspan></text>
    <text
       xml:space="preserve"
       style="font-size:14.1111px;font-family:'Times New Roman';-inkscape-font-specification:'Times New Roman, ';text-align:center;text-anchor:middle;opacity:0.95;fill:#000000;fill-opacity:1;stroke:none;stroke-width:0.2;stroke-linecap:square;stroke-linejoin:bevel;stroke-miterlimit:3.5;stroke-opacity:1;paint-order:markers fill stroke"
       x="53.472214"
       y="77.04982"
       id="text1060"><tspan
         sodipodi:role="line"
         id="tspan1058"
         style="font-size:14.1111px;fill:#000000;fill-opacity:1;stroke:none;stroke-width:0.2"
         x="53.472214"
         y="77.04982">QC</tspan></text>
    <text
       xml:space="preserve"
       style="font-size:14.1111px;font-family:'Times New Roman';-inkscape-font-specification:'Times New Roman, ';text-align:center;text-anchor:middle;opacity:0.95;fill:#000000;fill-opacity:0.921569;stroke:none;stroke-width:0.2;stroke-linecap:square;stroke-linejoin:bevel;stroke-miterlimit:3.5;stroke-opacity:1;paint-order:markers fill stroke"
       x="92.902626"
       y="77.049812"
       id="text1064"><tspan
         sodipodi:role="line"
         id="tspan1062"
         style="font-size:14.1111px;fill:#000000;fill-opacity:0.921569;stroke:none;stroke-width:0.2"
         x="92.902626"
         y="77.049812">QQ</tspan></text>
    <text
       xml:space="preserve"
       style="font-size:7.05556px;font-family:'Times New Roman';-inkscape-font-specification:'Times New Roman, ';text-align:center;text-anchor:middle;opacity:0.95;fill:#000000;fill-opacity:0.921569;stroke:none;stroke-width:0.2;stroke-linecap:square;stroke-linejoin:bevel;stroke-miterlimit:3.5;stroke-opacity:1;paint-order:markers fill stroke"
       x="-55.598595"
       y="17.447271"
       id="text1970"
       transform="rotate(-90)"><tspan
         sodipodi:role="line"
         id="tspan1968"
         style="font-size:7.05556px;stroke-width:0.2"
         x="-55.598595"
         y="17.447271">Type of  Data</tspan></text>
    <text
       xml:space="preserve"
       style="font-size:7.05556px;font-family:'Times New Roman';-inkscape-font-specification:'Times New Roman, ';text-align:center;text-anchor:middle;opacity:0.95;fill:#000000;fill-opacity:0.921569;stroke:none;stroke-width:0.2;stroke-linecap:square;stroke-linejoin:bevel;stroke-miterlimit:3.5;stroke-opacity:1;paint-order:markers fill stroke"
       x="72.882805"
       y="10.139776"
       id="text1970-8"><tspan
         sodipodi:role="line"
         id="tspan1968-2"
         style="font-size:7.05556px;stroke-width:0.2"
         x="72.882805"
         y="10.139776">Type of Algorithm</tspan></text>
    <path
       style="opacity:0.95;fill:none;fill-opacity:0.921569;stroke:#000000;stroke-width:0.2;stroke-linecap:square;stroke-linejoin:bevel;stroke-miterlimit:3.5;stroke-opacity:1;paint-order:markers fill stroke"
       d="M 38.742088,15.518873 107.20612,15.247191"
       id="path2103" />
    <path
       style="opacity:0.95;fill:none;fill-opacity:0.921569;stroke:#000000;stroke-width:0.184769;stroke-linecap:square;stroke-linejoin:bevel;stroke-miterlimit:3.5;stroke-opacity:1;paint-order:markers fill stroke"
       d="m 25.068191,27.838744 0.286974,55.319879"
       id="path2103-4" />
    <text
       xml:space="preserve"
       style="font-size:3.88056px;font-family:'Times New Roman';-inkscape-font-specification:'Times New Roman, ';text-align:center;text-anchor:middle;opacity:0.95;fill:#000000;fill-opacity:0.921569;stroke:none;stroke-width:0.2;stroke-linecap:square;stroke-linejoin:bevel;stroke-miterlimit:3.5;stroke-opacity:1;paint-order:markers fill stroke"
       x="-73.712639"
       y="31.115635"
       id="text1970-1"
       transform="rotate(-90)"><tspan
         sodipodi:role="line"
         id="tspan1968-0"
         style="font-size:3.88056px;stroke-width:0.2"
         x="-73.712639"
         y="31.115635">Quantum</tspan></text>
    <text
       xml:space="preserve"
       style="font-size:3.88056px;font-family:'Times New Roman';-inkscape-font-specification:'Times New Roman, ';text-align:center;text-anchor:middle;opacity:0.95;fill:#000000;fill-opacity:0.921569;stroke:none;stroke-width:0.2;stroke-linecap:square;stroke-linejoin:bevel;stroke-miterlimit:3.5;stroke-opacity:1;paint-order:markers fill stroke"
       x="-39.151737"
       y="31.499332"
       id="text1970-1-8"
       transform="rotate(-90)"><tspan
         sodipodi:role="line"
         id="tspan1968-0-1"
         style="font-size:3.88056px;stroke-width:0.2"
         x="-39.151737"
         y="31.499332">Classical</tspan></text>
    <text
       xml:space="preserve"
       style="font-size:3.88056px;font-family:'Times New Roman';-inkscape-font-specification:'Times New Roman, ';text-align:center;text-anchor:middle;opacity:0.95;fill:#000000;fill-opacity:0.921569;stroke:none;stroke-width:0.2;stroke-linecap:square;stroke-linejoin:bevel;stroke-miterlimit:3.5;stroke-opacity:1;paint-order:markers fill stroke"
       x="92.674126"
       y="20.268682"
       id="text1970-1-5"><tspan
         sodipodi:role="line"
         id="tspan1968-0-16"
         style="font-size:3.88056px;stroke-width:0.2"
         x="92.674126"
         y="20.268682">Quantum</tspan></text>
    <text
       xml:space="preserve"
       style="font-size:3.88056px;font-family:'Times New Roman';-inkscape-font-specification:'Times New Roman, ';text-align:center;text-anchor:middle;opacity:0.95;fill:#000000;fill-opacity:0.921569;stroke:none;stroke-width:0.2;stroke-linecap:square;stroke-linejoin:bevel;stroke-miterlimit:3.5;stroke-opacity:1;paint-order:markers fill stroke"
       x="53.445347"
       y="20.65238"
       id="text1970-1-8-0"><tspan
         sodipodi:role="line"
         id="tspan1968-0-1-6"
         style="font-size:3.88056px;stroke-width:0.2"
         x="53.445347"
         y="20.65238">Classical</tspan></text>
    <path
       style="opacity:0.95;fill:#f6dc6d;fill-opacity:0.921569;stroke:#000000;stroke-width:0.2;stroke-linecap:square;stroke-linejoin:bevel;stroke-miterlimit:3.5;stroke-opacity:1;paint-order:markers fill stroke;marker-start:url(#TriangleStart);marker-end:url(#TriangleStart)"
       d="m 24.723124,106.77129 0.135841,48.6312"
       id="path3224" />
    <path
       style="opacity:0.95;fill:#f6dc6d;fill-opacity:0.921569;stroke:#000000;stroke-width:0.197922;stroke-linecap:square;stroke-linejoin:bevel;stroke-miterlimit:3.5;stroke-opacity:1;marker-start:url(#marker3471);marker-end:url(#marker3517);paint-order:markers fill stroke"
       d="m 18.327242,147.87738 84.651838,0.29246"
       id="path3226" />
    <path
       style="opacity:0.95;fill:#f6dc6d;fill-opacity:0.921569;stroke:#ea8247;stroke-width:0.178491;stroke-linecap:square;stroke-linejoin:bevel;stroke-miterlimit:3.5;stroke-dasharray:0.535474, 0.535474;stroke-dashoffset:0;stroke-opacity:1;paint-order:markers fill stroke"
       d="m 29.950856,126.06742 69.041737,-0.42085"
       id="path3587" />
    <rect
       style="opacity:0.95;fill:#f6dc6d;fill-opacity:0.921569;stroke:#000000;stroke-width:0.156096;stroke-linecap:square;stroke-linejoin:bevel;stroke-miterlimit:3.5;stroke-dasharray:none;stroke-dashoffset:0;stroke-opacity:1;paint-order:markers fill stroke"
       id="rect3641"
       width="17.686771"
       height="10.321718"
       x="42.165379"
       y="120.8144" />
    <path
       style="opacity:0.95;fill:#f6dc6d;fill-opacity:0.921569;stroke:#000000;stroke-width:0.2;stroke-linecap:square;stroke-linejoin:bevel;stroke-miterlimit:3.5;stroke-dasharray:none;stroke-dashoffset:0;stroke-opacity:1;paint-order:markers fill stroke"
       d="m 21.921422,140.79547 5.739246,4e-5"
       id="path3697"
       sodipodi:nodetypes="cc" />
    <path
       style="opacity:0.95;fill:#f6dc6d;fill-opacity:0.921569;stroke:#000000;stroke-width:0.2;stroke-linecap:square;stroke-linejoin:bevel;stroke-miterlimit:3.5;stroke-dasharray:none;stroke-dashoffset:0;stroke-opacity:1;paint-order:markers fill stroke"
       d="m 21.921422,134.31006 5.739246,4e-5"
       id="path3697-8"
       sodipodi:nodetypes="cc" />
    <path
       style="opacity:0.95;fill:#f6dc6d;fill-opacity:0.921569;stroke:#000000;stroke-width:0.2;stroke-linecap:square;stroke-linejoin:bevel;stroke-miterlimit:3.5;stroke-dasharray:none;stroke-dashoffset:0;stroke-opacity:1;paint-order:markers fill stroke"
       d="m 21.921422,127.82465 5.739246,4e-5"
       id="path3697-0"
       sodipodi:nodetypes="cc" />
    <path
       style="opacity:0.95;fill:#f6dc6d;fill-opacity:0.921569;stroke:#000000;stroke-width:0.2;stroke-linecap:square;stroke-linejoin:bevel;stroke-miterlimit:3.5;stroke-dasharray:none;stroke-dashoffset:0;stroke-opacity:1;paint-order:markers fill stroke"
       d="m 21.921422,121.33924 5.739246,4e-5"
       id="path3697-0-0"
       sodipodi:nodetypes="cc" />
    <path
       style="opacity:0.95;fill:#f6dc6d;fill-opacity:0.921569;stroke:#000000;stroke-width:0.2;stroke-linecap:square;stroke-linejoin:bevel;stroke-miterlimit:3.5;stroke-dasharray:none;stroke-dashoffset:0;stroke-opacity:1;paint-order:markers fill stroke"
       d="m 21.921422,114.85383 5.739246,4e-5"
       id="path3697-0-7"
       sodipodi:nodetypes="cc" />
    <path
       style="opacity:0.95;fill:#f6dc6d;fill-opacity:0.921569;stroke:#000000;stroke-width:0.2;stroke-linecap:square;stroke-linejoin:bevel;stroke-miterlimit:3.5;stroke-dasharray:none;stroke-dashoffset:0;stroke-opacity:1;paint-order:markers fill stroke"
       d="m 36.949273,150.89311 -0.05434,-5.73899"
       id="path3697-5"
       sodipodi:nodetypes="cc" />
    <path
       style="opacity:0.95;fill:#f6dc6d;fill-opacity:0.921569;stroke:#000000;stroke-width:0.2;stroke-linecap:square;stroke-linejoin:bevel;stroke-miterlimit:3.5;stroke-dasharray:none;stroke-dashoffset:0;stroke-opacity:1;paint-order:markers fill stroke"
       d="m 48.525978,150.8931 -0.05434,-5.73898"
       id="path3697-8-5"
       sodipodi:nodetypes="cc" />
    <path
       style="opacity:0.95;fill:#f6dc6d;fill-opacity:0.921569;stroke:#000000;stroke-width:0.2;stroke-linecap:square;stroke-linejoin:bevel;stroke-miterlimit:3.5;stroke-dasharray:none;stroke-dashoffset:0;stroke-opacity:1;paint-order:markers fill stroke"
       d="m 60.102683,150.8931 -0.05434,-5.73898"
       id="path3697-0-2"
       sodipodi:nodetypes="cc" />
    <path
       style="opacity:0.95;fill:#f6dc6d;fill-opacity:0.921569;stroke:#000000;stroke-width:0.2;stroke-linecap:square;stroke-linejoin:bevel;stroke-miterlimit:3.5;stroke-dasharray:none;stroke-dashoffset:0;stroke-opacity:1;paint-order:markers fill stroke"
       d="m 71.679388,150.8931 -0.05434,-5.73898"
       id="path3697-0-0-6"
       sodipodi:nodetypes="cc" />
    <path
       style="opacity:0.95;fill:#f6dc6d;fill-opacity:0.921569;stroke:#000000;stroke-width:0.2;stroke-linecap:square;stroke-linejoin:bevel;stroke-miterlimit:3.5;stroke-dasharray:none;stroke-dashoffset:0;stroke-opacity:1;paint-order:markers fill stroke"
       d="m 83.256093,150.89311 -0.05434,-5.73899"
       id="path3697-0-7-1"
       sodipodi:nodetypes="cc" />
    <path
       style="opacity:0.95;fill:#f6dc6d;fill-opacity:0.921569;stroke:#000000;stroke-width:0.2;stroke-linecap:square;stroke-linejoin:bevel;stroke-miterlimit:3.5;stroke-dasharray:none;stroke-dashoffset:0;stroke-opacity:1;paint-order:markers fill stroke"
       d="m 94.832798,150.89311 -0.05434,-5.73899"
       id="path3697-0-7-1-9"
       sodipodi:nodetypes="cc" />
    <text
       xml:space="preserve"
       style="font-size:3.175px;font-family:'Times New Roman';-inkscape-font-specification:'Times New Roman, Normal';text-align:center;text-anchor:middle;opacity:0.95;fill:#000000;fill-opacity:0.921569;stroke:none;stroke-width:0.2;stroke-linecap:square;stroke-linejoin:bevel;stroke-miterlimit:3.5;stroke-dasharray:none;stroke-dashoffset:0;stroke-opacity:1;paint-order:markers fill stroke;font-weight:normal;font-style:normal;font-stretch:normal;font-variant:normal;font-variant-ligatures:normal;font-variant-caps:normal;font-variant-numeric:normal;font-variant-east-asian:normal"
       x="-127.01134"
       y="10.423436"
       id="text4048"
       transform="rotate(-90)"><tspan
         sodipodi:role="line"
         id="tspan4046"
         style="fill:#000000;fill-opacity:0.921569;stroke:none;stroke-width:0.2;-inkscape-font-specification:'Times New Roman, Normal';font-family:'Times New Roman';font-weight:normal;font-style:normal;font-stretch:normal;font-variant:normal;font-size:3.175px;font-variant-ligatures:normal;font-variant-caps:normal;font-variant-numeric:normal;font-variant-east-asian:normal"
         x="-127.01134"
         y="10.423436">Physical error rate</tspan></text>
    <text
       xml:space="preserve"
       style="font-size:3.175px;font-family:'Times New Roman';-inkscape-font-specification:'Times New Roman, Normal';text-align:center;text-anchor:middle;opacity:0.95;fill:#000000;fill-opacity:0.921569;stroke:none;stroke-width:0.2;stroke-linecap:square;stroke-linejoin:bevel;stroke-miterlimit:3.5;stroke-dasharray:none;stroke-dashoffset:0;stroke-opacity:1;paint-order:markers fill stroke;font-weight:normal;font-style:normal;font-stretch:normal;font-variant:normal;font-variant-ligatures:normal;font-variant-caps:normal;font-variant-numeric:normal;font-variant-east-asian:normal"
       x="68.116203"
       y="159.89778"
       id="text4048-5"><tspan
         sodipodi:role="line"
         id="tspan4046-8"
         style="fill:#000000;fill-opacity:0.921569;stroke:none;stroke-width:0.2;-inkscape-font-specification:'Times New Roman, Normal';font-family:'Times New Roman';font-weight:normal;font-style:normal;font-stretch:normal;font-variant:normal;font-size:3.175px;font-variant-ligatures:normal;font-variant-caps:normal;font-variant-numeric:normal;font-variant-east-asian:normal"
         x="68.116203"
         y="159.89778">Numbre of physical qubits</tspan></text>
    <text
       xml:space="preserve"
       style="font-size:3.88056px;font-family:'Times New Roman';-inkscape-font-specification:'Times New Roman, ';text-align:center;text-anchor:middle;opacity:0.95;fill:#000000;fill-opacity:0.921569;stroke:none;stroke-width:0.2;stroke-linecap:square;stroke-linejoin:bevel;stroke-miterlimit:3.5;stroke-dasharray:none;stroke-dashoffset:0;stroke-opacity:1;paint-order:markers fill stroke"
       x="51.144264"
       y="127.01166"
       id="text4891"><tspan
         sodipodi:role="line"
         id="tspan4889"
         style="stroke-width:0.2"
         x="51.144264"
         y="127.01166">NISQ</tspan></text>
    <text
       xml:space="preserve"
       style="font-size:3.88056px;font-family:'Times New Roman';-inkscape-font-specification:'Times New Roman, ';text-align:center;text-anchor:middle;opacity:0.95;fill:#000000;fill-opacity:0.921569;stroke:none;stroke-width:0.2;stroke-linecap:square;stroke-linejoin:bevel;stroke-miterlimit:3.5;stroke-dasharray:none;stroke-dashoffset:0;stroke-opacity:1;paint-order:markers fill stroke"
       x="83.949951"
       y="132.30946"
       id="text4895"><tspan
         sodipodi:role="line"
         id="tspan4893"
         style="stroke-width:0.2"
         x="83.949951"
         y="132.30946">Fault-tolerant</tspan><tspan
         sodipodi:role="line"
         style="stroke-width:0.2"
         x="83.949951"
         y="137.16016"
         id="tspan4897">QC</tspan></text>
    <text
       xml:space="preserve"
       style="font-size:2.82222px;font-family:'Times New Roman';-inkscape-font-specification:'Times New Roman, ';text-align:center;text-anchor:middle;opacity:0.95;fill:#000000;fill-opacity:0.921569;stroke:none;stroke-width:0.2;stroke-linecap:square;stroke-linejoin:bevel;stroke-miterlimit:3.5;stroke-dasharray:none;stroke-dashoffset:0;stroke-opacity:1;paint-order:markers fill stroke"
       x="93.730522"
       y="124.63442"
       id="text4901"><tspan
         sodipodi:role="line"
         id="tspan4899"
         style="font-size:2.82222px;stroke-width:0.2"
         x="93.730522"
         y="124.63442">Error correction threshold</tspan></text>
    <g
       inkscape:label=""
       transform="translate(13.759815,138.84666)"
       id="g5424">
      <g
         clip-path="url(#clipPath7504)"
         id="g30"
         transform="matrix(0.352778,0,0,0.352778,-0.314193,0.0458611)">
        <g
           fill="#000000"
           fill-opacity="1"
           id="g28">
          <g
             id="use24"
             transform="translate(0,8.1099997)">
            <path
               d="m 2.9375,-6.375 c 0,-0.25 0,-0.265625 -0.234375,-0.265625 C 2.078125,-6 1.203125,-6 0.890625,-6 v 0.3125 c 0.203125,0 0.78125,0 1.296875,-0.265625 v 5.171875 c 0,0.359375 -0.03125,0.46875 -0.921875,0.46875 h -0.3125 V 0 c 0.34375,-0.03125 1.203125,-0.03125 1.609375,-0.03125 0.390625,0 1.265625,0 1.609375,0.03125 v -0.3125 h -0.3125 c -0.90625,0 -0.921875,-0.109375 -0.921875,-0.46875 z m 0,0"
               id="path44" />
          </g>
          <g
             id="use26"
             transform="translate(4.9812999,8.1099997)">
            <path
               d="m 4.578125,-3.1875 c 0,-0.796875 -0.046875,-1.59375 -0.390625,-2.328125 -0.453125,-0.96875 -1.28125,-1.125 -1.6875,-1.125 -0.609375,0 -1.328125,0.265625 -1.75,1.1875 -0.3125,0.6875 -0.359375,1.46875 -0.359375,2.265625 0,0.75 0.03125,1.640625 0.453125,2.40625 0.421875,0.796875 1.15625,1 1.640625,1 0.53125,0 1.296875,-0.203125 1.734375,-1.15625 0.3125,-0.6875 0.359375,-1.46875 0.359375,-2.25 z M 2.484375,0 C 2.09375,0 1.5,-0.25 1.328125,-1.203125 1.21875,-1.796875 1.21875,-2.71875 1.21875,-3.3125 c 0,-0.640625 0,-1.296875 0.078125,-1.828125 0.1875,-1.1875 0.9375,-1.28125 1.1875,-1.28125 0.328125,0 0.984375,0.1875 1.171875,1.171875 0.109375,0.5625 0.109375,1.3125 0.109375,1.9375 0,0.75 0,1.421875 -0.109375,2.0625 C 3.5,-0.296875 2.9375,0 2.484375,0 Z m 0,0"
               id="path48" />
          </g>
        </g>
      </g>
      <g
         fill="#000000"
         fill-opacity="1"
         id="g34"
         transform="matrix(0.352778,0,0,0.352778,-0.314193,0.0458611)">
        <g
           id="use32"
           transform="translate(9.9630003,4.4949999)">
          <path
             d="m 5.1875,-1.578125 c 0.109375,0 0.28125,0 0.28125,-0.15625 0,-0.1875 -0.171875,-0.1875 -0.28125,-0.1875 H 1.03125 c -0.109375,0 -0.28125,0 -0.28125,0.171875 0,0.171875 0.15625,0.171875 0.28125,0.171875 z m 0,0"
             id="path52" />
        </g>
      </g>
      <g
         fill="#000000"
         fill-opacity="1"
         id="g38"
         transform="matrix(0.352778,0,0,0.352778,-0.314193,0.0458611)">
        <g
           id="use36"
           transform="translate(16.188999,4.4949999)">
          <path
             d="m 1.078125,-3.890625 c 0.359375,0.09375 0.5625,0.09375 0.671875,0.09375 0.921875,0 1.46875,-0.625 1.46875,-0.734375 0,-0.078125 -0.046875,-0.09375 -0.078125,-0.09375 -0.015625,0 -0.03125,0 -0.0625,0.015625 -0.171875,0.0625 -0.53125,0.203125 -1.046875,0.203125 -0.203125,0 -0.5625,-0.015625 -1.015625,-0.1875 C 0.9375,-4.625 0.921875,-4.625 0.921875,-4.625 c -0.09375,0 -0.09375,0.078125 -0.09375,0.1875 v 2.046875 c 0,0.125 0,0.203125 0.109375,0.203125 0.0625,0 0.078125,0 0.140625,-0.09375 0.296875,-0.375 0.734375,-0.4375 0.96875,-0.4375 0.421875,0 0.609375,0.328125 0.640625,0.390625 0.125,0.234375 0.171875,0.5 0.171875,0.90625 0,0.203125 0,0.609375 -0.21875,0.921875 -0.171875,0.25 -0.46875,0.421875 -0.8125,0.421875 -0.453125,0 -0.921875,-0.25 -1.09375,-0.71875 0.265625,0.015625 0.40625,-0.15625 0.40625,-0.34375 0,-0.296875 -0.265625,-0.34375 -0.359375,-0.34375 0,0 -0.34375,0 -0.34375,0.375 0,0.625 0.578125,1.25 1.40625,1.25 0.890625,0 1.671875,-0.65625 1.671875,-1.546875 0,-0.78125 -0.59375,-1.5 -1.453125,-1.5 -0.3125,0 -0.671875,0.0625 -0.984375,0.328125 z m 0,0"
             id="path56" />
        </g>
      </g>
    </g>
    <g
       inkscape:label=""
       transform="translate(13.729498,132.51553)"
       id="g8692">
      <g
         clip-path="url(#clipPath74)"
         id="g8678"
         transform="matrix(0.352778,0,0,0.352778,-0.314193,0.0734219)">
        <g
           fill="#000000"
           fill-opacity="1"
           id="g8676">
          <g
             id="g8670"
             transform="translate(0,8.1099997)">
            <path
               d="m 2.9375,-6.375 c 0,-0.25 0,-0.265625 -0.234375,-0.265625 C 2.078125,-6 1.203125,-6 0.890625,-6 v 0.3125 c 0.203125,0 0.78125,0 1.296875,-0.265625 v 5.171875 c 0,0.359375 -0.03125,0.46875 -0.921875,0.46875 h -0.3125 V 0 c 0.34375,-0.03125 1.203125,-0.03125 1.609375,-0.03125 0.390625,0 1.265625,0 1.609375,0.03125 v -0.3125 h -0.3125 c -0.90625,0 -0.921875,-0.109375 -0.921875,-0.46875 z m 0,0"
               id="path8668" />
          </g>
          <g
             id="g8674"
             transform="translate(4.9812999,8.1099997)">
            <path
               d="m 4.578125,-3.1875 c 0,-0.796875 -0.046875,-1.59375 -0.390625,-2.328125 -0.453125,-0.96875 -1.28125,-1.125 -1.6875,-1.125 -0.609375,0 -1.328125,0.265625 -1.75,1.1875 -0.3125,0.6875 -0.359375,1.46875 -0.359375,2.265625 0,0.75 0.03125,1.640625 0.453125,2.40625 0.421875,0.796875 1.15625,1 1.640625,1 0.53125,0 1.296875,-0.203125 1.734375,-1.15625 0.3125,-0.6875 0.359375,-1.46875 0.359375,-2.25 z M 2.484375,0 C 2.09375,0 1.5,-0.25 1.328125,-1.203125 1.21875,-1.796875 1.21875,-2.71875 1.21875,-3.3125 c 0,-0.640625 0,-1.296875 0.078125,-1.828125 0.1875,-1.1875 0.9375,-1.28125 1.1875,-1.28125 0.328125,0 0.984375,0.1875 1.171875,1.171875 0.109375,0.5625 0.109375,1.3125 0.109375,1.9375 0,0.75 0,1.421875 -0.109375,2.0625 C 3.5,-0.296875 2.9375,0 2.484375,0 Z m 0,0"
               id="path8672" />
          </g>
        </g>
      </g>
      <g
         fill="#000000"
         fill-opacity="1"
         id="g8684"
         transform="matrix(0.352778,0,0,0.352778,-0.314193,0.0734219)">
        <g
           id="g8682"
           transform="translate(9.9630003,4.4949999)">
          <path
             d="m 5.1875,-1.578125 c 0.109375,0 0.28125,0 0.28125,-0.15625 0,-0.1875 -0.171875,-0.1875 -0.28125,-0.1875 H 1.03125 c -0.109375,0 -0.28125,0 -0.28125,0.171875 0,0.171875 0.15625,0.171875 0.28125,0.171875 z m 0,0"
             id="path8680" />
        </g>
      </g>
      <g
         fill="#000000"
         fill-opacity="1"
         id="g8690"
         transform="matrix(0.352778,0,0,0.352778,-0.314193,0.0734219)">
        <g
           id="g8688"
           transform="translate(16.188999,4.4949999)">
          <path
             d="m 3.6875,-1.140625 v -0.25 H 2.90625 V -4.5 c 0,-0.140625 0,-0.203125 -0.140625,-0.203125 -0.09375,0 -0.125,0 -0.1875,0.109375 l -2.3125,3.203125 v 0.25 h 2.0625 v 0.5625 c 0,0.25 0,0.328125 -0.578125,0.328125 H 1.5625 V 0 C 1.921875,-0.015625 2.359375,-0.03125 2.609375,-0.03125 2.875,-0.03125 3.3125,-0.015625 3.671875,0 v -0.25 h -0.1875 C 2.90625,-0.25 2.90625,-0.328125 2.90625,-0.578125 v -0.5625 z M 2.375,-3.9375 v 2.546875 H 0.53125 Z m 0,0"
             id="path8686" />
        </g>
      </g>
    </g>
    <g
       inkscape:label=""
       transform="translate(13.748791,126.23952)"
       id="g9704">
      <g
         clip-path="url(#clipPath2584)"
         id="g9690"
         transform="matrix(0.352778,0,0,0.352778,-0.314193,0.0458611)">
        <g
           fill="#000000"
           fill-opacity="1"
           id="g9688">
          <g
             id="g9682"
             transform="translate(0,8.1099997)">
            <path
               d="m 2.9375,-6.375 c 0,-0.25 0,-0.265625 -0.234375,-0.265625 C 2.078125,-6 1.203125,-6 0.890625,-6 v 0.3125 c 0.203125,0 0.78125,0 1.296875,-0.265625 v 5.171875 c 0,0.359375 -0.03125,0.46875 -0.921875,0.46875 h -0.3125 V 0 c 0.34375,-0.03125 1.203125,-0.03125 1.609375,-0.03125 0.390625,0 1.265625,0 1.609375,0.03125 v -0.3125 h -0.3125 c -0.90625,0 -0.921875,-0.109375 -0.921875,-0.46875 z m 0,0"
               id="path9680" />
          </g>
          <g
             id="g9686"
             transform="translate(4.9812999,8.1099997)">
            <path
               d="m 4.578125,-3.1875 c 0,-0.796875 -0.046875,-1.59375 -0.390625,-2.328125 -0.453125,-0.96875 -1.28125,-1.125 -1.6875,-1.125 -0.609375,0 -1.328125,0.265625 -1.75,1.1875 -0.3125,0.6875 -0.359375,1.46875 -0.359375,2.265625 0,0.75 0.03125,1.640625 0.453125,2.40625 0.421875,0.796875 1.15625,1 1.640625,1 0.53125,0 1.296875,-0.203125 1.734375,-1.15625 0.3125,-0.6875 0.359375,-1.46875 0.359375,-2.25 z M 2.484375,0 C 2.09375,0 1.5,-0.25 1.328125,-1.203125 1.21875,-1.796875 1.21875,-2.71875 1.21875,-3.3125 c 0,-0.640625 0,-1.296875 0.078125,-1.828125 0.1875,-1.1875 0.9375,-1.28125 1.1875,-1.28125 0.328125,0 0.984375,0.1875 1.171875,1.171875 0.109375,0.5625 0.109375,1.3125 0.109375,1.9375 0,0.75 0,1.421875 -0.109375,2.0625 C 3.5,-0.296875 2.9375,0 2.484375,0 Z m 0,0"
               id="path9684" />
          </g>
        </g>
      </g>
      <g
         fill="#000000"
         fill-opacity="1"
         id="g9696"
         transform="matrix(0.352778,0,0,0.352778,-0.314193,0.0458611)">
        <g
           id="g9694"
           transform="translate(9.9630003,4.4949999)">
          <path
             d="m 5.1875,-1.578125 c 0.109375,0 0.28125,0 0.28125,-0.15625 0,-0.1875 -0.171875,-0.1875 -0.28125,-0.1875 H 1.03125 c -0.109375,0 -0.28125,0 -0.28125,0.171875 0,0.171875 0.15625,0.171875 0.28125,0.171875 z m 0,0"
             id="path9692" />
        </g>
      </g>
      <g
         fill="#000000"
         fill-opacity="1"
         id="g9702"
         transform="matrix(0.352778,0,0,0.352778,-0.314193,0.0458611)">
        <g
           id="g9700"
           transform="translate(16.188999,4.4949999)">
          <path
             d="m 1.90625,-2.328125 c 0.546875,0 0.9375,0.375 0.9375,1.125 0,0.859375 -0.515625,1.125 -0.90625,1.125 -0.28125,0 -0.90625,-0.078125 -1.1875,-0.5 0.328125,0 0.40625,-0.234375 0.40625,-0.390625 0,-0.21875 -0.171875,-0.375 -0.390625,-0.375 -0.1875,0 -0.390625,0.125 -0.390625,0.40625 0,0.65625 0.71875,1.078125 1.5625,1.078125 0.96875,0 1.640625,-0.65625 1.640625,-1.34375 0,-0.546875 -0.4375,-1.09375 -1.203125,-1.25 0.71875,-0.265625 0.984375,-0.78125 0.984375,-1.21875 0,-0.546875 -0.625,-0.953125 -1.40625,-0.953125 -0.765625,0 -1.359375,0.375 -1.359375,0.9375 0,0.234375 0.15625,0.359375 0.359375,0.359375 0.21875,0 0.359375,-0.15625 0.359375,-0.34375 0,-0.203125 -0.140625,-0.359375 -0.359375,-0.375 0.25,-0.296875 0.71875,-0.375 0.984375,-0.375 0.3125,0 0.75,0.15625 0.75,0.75 0,0.296875 -0.09375,0.625 -0.28125,0.828125 -0.21875,0.265625 -0.421875,0.28125 -0.765625,0.3125 -0.171875,0.015625 -0.1875,0.015625 -0.21875,0.015625 -0.015625,0 -0.078125,0.015625 -0.078125,0.09375 0,0.09375 0.0625,0.09375 0.1875,0.09375 z m 0,0"
             id="path9698" />
        </g>
      </g>
    </g>
    <g
       inkscape:label=""
       transform="translate(13.759815,119.93594)"
       id="g10746">
      <g
         clip-path="url(#clipPath8954)"
         id="g10732"
         transform="matrix(0.352778,0,0,0.352778,-0.314193,0.0458611)">
        <g
           fill="#000000"
           fill-opacity="1"
           id="g10730">
          <g
             id="g10724"
             transform="translate(0,8.1099997)">
            <path
               d="m 2.9375,-6.375 c 0,-0.25 0,-0.265625 -0.234375,-0.265625 C 2.078125,-6 1.203125,-6 0.890625,-6 v 0.3125 c 0.203125,0 0.78125,0 1.296875,-0.265625 v 5.171875 c 0,0.359375 -0.03125,0.46875 -0.921875,0.46875 h -0.3125 V 0 c 0.34375,-0.03125 1.203125,-0.03125 1.609375,-0.03125 0.390625,0 1.265625,0 1.609375,0.03125 v -0.3125 h -0.3125 c -0.90625,0 -0.921875,-0.109375 -0.921875,-0.46875 z m 0,0"
               id="path10722" />
          </g>
          <g
             id="g10728"
             transform="translate(4.9812999,8.1099997)">
            <path
               d="m 4.578125,-3.1875 c 0,-0.796875 -0.046875,-1.59375 -0.390625,-2.328125 -0.453125,-0.96875 -1.28125,-1.125 -1.6875,-1.125 -0.609375,0 -1.328125,0.265625 -1.75,1.1875 -0.3125,0.6875 -0.359375,1.46875 -0.359375,2.265625 0,0.75 0.03125,1.640625 0.453125,2.40625 0.421875,0.796875 1.15625,1 1.640625,1 0.53125,0 1.296875,-0.203125 1.734375,-1.15625 0.3125,-0.6875 0.359375,-1.46875 0.359375,-2.25 z M 2.484375,0 C 2.09375,0 1.5,-0.25 1.328125,-1.203125 1.21875,-1.796875 1.21875,-2.71875 1.21875,-3.3125 c 0,-0.640625 0,-1.296875 0.078125,-1.828125 0.1875,-1.1875 0.9375,-1.28125 1.1875,-1.28125 0.328125,0 0.984375,0.1875 1.171875,1.171875 0.109375,0.5625 0.109375,1.3125 0.109375,1.9375 0,0.75 0,1.421875 -0.109375,2.0625 C 3.5,-0.296875 2.9375,0 2.484375,0 Z m 0,0"
               id="path10726" />
          </g>
        </g>
      </g>
      <g
         fill="#000000"
         fill-opacity="1"
         id="g10738"
         transform="matrix(0.352778,0,0,0.352778,-0.314193,0.0458611)">
        <g
           id="g10736"
           transform="translate(9.9630003,4.4949999)">
          <path
             d="m 5.1875,-1.578125 c 0.109375,0 0.28125,0 0.28125,-0.15625 0,-0.1875 -0.171875,-0.1875 -0.28125,-0.1875 H 1.03125 c -0.109375,0 -0.28125,0 -0.28125,0.171875 0,0.171875 0.15625,0.171875 0.28125,0.171875 z m 0,0"
             id="path10734" />
        </g>
      </g>
      <g
         fill="#000000"
         fill-opacity="1"
         id="g10744"
         transform="matrix(0.352778,0,0,0.352778,-0.314193,0.0458611)">
        <g
           id="g10742"
           transform="translate(16.188999,4.4949999)">
          <path
             d="M 3.515625,-1.265625 H 3.28125 c -0.015625,0.15625 -0.09375,0.5625 -0.1875,0.625 C 3.046875,-0.59375 2.515625,-0.59375 2.40625,-0.59375 H 1.125 c 0.734375,-0.640625 0.984375,-0.84375 1.390625,-1.171875 0.515625,-0.40625 1,-0.84375 1,-1.5 0,-0.84375 -0.734375,-1.359375 -1.625,-1.359375 -0.859375,0 -1.453125,0.609375 -1.453125,1.25 0,0.34375 0.296875,0.390625 0.375,0.390625 0.15625,0 0.359375,-0.125 0.359375,-0.375 0,-0.125 -0.046875,-0.375 -0.40625,-0.375 C 0.984375,-4.21875 1.453125,-4.375 1.78125,-4.375 c 0.703125,0 1.0625,0.546875 1.0625,1.109375 0,0.609375 -0.4375,1.078125 -0.65625,1.328125 L 0.515625,-0.265625 C 0.4375,-0.203125 0.4375,-0.1875 0.4375,0 h 2.875 z m 0,0"
             id="path10740" />
        </g>
      </g>
    </g>
    <g
       inkscape:label=""
       transform="translate(13.7984,113.63237)"
       id="g11437">
      <g
         clip-path="url(#clipPath3253)"
         id="g11423"
         transform="matrix(0.352778,0,0,0.352778,-0.314193,0.0458611)">
        <g
           fill="#000000"
           fill-opacity="1"
           id="g11421">
          <g
             id="g11415"
             transform="translate(0,8.1099997)">
            <path
               d="m 2.9375,-6.375 c 0,-0.25 0,-0.265625 -0.234375,-0.265625 C 2.078125,-6 1.203125,-6 0.890625,-6 v 0.3125 c 0.203125,0 0.78125,0 1.296875,-0.265625 v 5.171875 c 0,0.359375 -0.03125,0.46875 -0.921875,0.46875 h -0.3125 V 0 c 0.34375,-0.03125 1.203125,-0.03125 1.609375,-0.03125 0.390625,0 1.265625,0 1.609375,0.03125 v -0.3125 h -0.3125 c -0.90625,0 -0.921875,-0.109375 -0.921875,-0.46875 z m 0,0"
               id="path11413" />
          </g>
          <g
             id="g11419"
             transform="translate(4.9812999,8.1099997)">
            <path
               d="m 4.578125,-3.1875 c 0,-0.796875 -0.046875,-1.59375 -0.390625,-2.328125 -0.453125,-0.96875 -1.28125,-1.125 -1.6875,-1.125 -0.609375,0 -1.328125,0.265625 -1.75,1.1875 -0.3125,0.6875 -0.359375,1.46875 -0.359375,2.265625 0,0.75 0.03125,1.640625 0.453125,2.40625 0.421875,0.796875 1.15625,1 1.640625,1 0.53125,0 1.296875,-0.203125 1.734375,-1.15625 0.3125,-0.6875 0.359375,-1.46875 0.359375,-2.25 z M 2.484375,0 C 2.09375,0 1.5,-0.25 1.328125,-1.203125 1.21875,-1.796875 1.21875,-2.71875 1.21875,-3.3125 c 0,-0.640625 0,-1.296875 0.078125,-1.828125 0.1875,-1.1875 0.9375,-1.28125 1.1875,-1.28125 0.328125,0 0.984375,0.1875 1.171875,1.171875 0.109375,0.5625 0.109375,1.3125 0.109375,1.9375 0,0.75 0,1.421875 -0.109375,2.0625 C 3.5,-0.296875 2.9375,0 2.484375,0 Z m 0,0"
               id="path11417" />
          </g>
        </g>
      </g>
      <g
         fill="#000000"
         fill-opacity="1"
         id="g11429"
         transform="matrix(0.352778,0,0,0.352778,-0.314193,0.0458611)">
        <g
           id="g11427"
           transform="translate(9.9630003,4.4949999)">
          <path
             d="m 5.1875,-1.578125 c 0.109375,0 0.28125,0 0.28125,-0.15625 0,-0.1875 -0.171875,-0.1875 -0.28125,-0.1875 H 1.03125 c -0.109375,0 -0.28125,0 -0.28125,0.171875 0,0.171875 0.15625,0.171875 0.28125,0.171875 z m 0,0"
             id="path11425" />
        </g>
      </g>
      <g
         fill="#000000"
         fill-opacity="1"
         id="g11435"
         transform="matrix(0.352778,0,0,0.352778,-0.314193,0.0458611)">
        <g
           id="g11433"
           transform="translate(16.188999,4.4949999)">
          <path
             d="m 2.328125,-4.4375 c 0,-0.1875 0,-0.1875 -0.203125,-0.1875 -0.453125,0.4375 -1.078125,0.4375 -1.359375,0.4375 v 0.25 c 0.15625,0 0.625,0 1,-0.1875 v 3.546875 c 0,0.234375 0,0.328125 -0.6875,0.328125 H 0.8125 V 0 c 0.125,0 0.984375,-0.03125 1.234375,-0.03125 0.21875,0 1.09375,0.03125 1.25,0.03125 V -0.25 H 3.03125 c -0.703125,0 -0.703125,-0.09375 -0.703125,-0.328125 z m 0,0"
             id="path11431" />
        </g>
      </g>
    </g>
    <g
       inkscape:label=""
       transform="translate(35.930038,152.45348)"
       id="g11756">
      <g
         fill="#000000"
         fill-opacity="1"
         id="g17"
         transform="matrix(0.352778,0,0,0.352778,-0.314193,0.0778316)">
        <g
           id="use13"
           transform="translate(0,6.4200001)">
          <path
             d="m 2.9375,-6.375 c 0,-0.25 0,-0.265625 -0.234375,-0.265625 C 2.078125,-6 1.203125,-6 0.890625,-6 v 0.3125 c 0.203125,0 0.78125,0 1.296875,-0.265625 v 5.171875 c 0,0.359375 -0.03125,0.46875 -0.921875,0.46875 h -0.3125 V 0 c 0.34375,-0.03125 1.203125,-0.03125 1.609375,-0.03125 0.390625,0 1.265625,0 1.609375,0.03125 v -0.3125 h -0.3125 c -0.90625,0 -0.921875,-0.109375 -0.921875,-0.46875 z m 0,0"
             id="path23" />
        </g>
        <g
           id="use15"
           transform="translate(4.9812999,6.4200001)">
          <path
             d="m 4.578125,-3.1875 c 0,-0.796875 -0.046875,-1.59375 -0.390625,-2.328125 -0.453125,-0.96875 -1.28125,-1.125 -1.6875,-1.125 -0.609375,0 -1.328125,0.265625 -1.75,1.1875 -0.3125,0.6875 -0.359375,1.46875 -0.359375,2.265625 0,0.75 0.03125,1.640625 0.453125,2.40625 0.421875,0.796875 1.15625,1 1.640625,1 0.53125,0 1.296875,-0.203125 1.734375,-1.15625 0.3125,-0.6875 0.359375,-1.46875 0.359375,-2.25 z M 2.484375,0 C 2.09375,0 1.5,-0.25 1.328125,-1.203125 1.21875,-1.796875 1.21875,-2.71875 1.21875,-3.3125 c 0,-0.640625 0,-1.296875 0.078125,-1.828125 0.1875,-1.1875 0.9375,-1.28125 1.1875,-1.28125 0.328125,0 0.984375,0.1875 1.171875,1.171875 0.109375,0.5625 0.109375,1.3125 0.109375,1.9375 0,0.75 0,1.421875 -0.109375,2.0625 C 3.5,-0.296875 2.9375,0 2.484375,0 Z m 0,0"
             id="path27" />
        </g>
      </g>
    </g>
    <g
       inkscape:label=""
       transform="translate(46.408266,152.21006)"
       id="g13146">
      <g
         clip-path="url(#clipPath6211)"
         id="g26"
         transform="matrix(0.352778,0,0,0.352778,-0.314193,0.0458611)">
        <g
           fill="#000000"
           fill-opacity="1"
           id="g24">
          <g
             id="use20"
             transform="translate(0,8.1099997)">
            <path
               d="m 2.9375,-6.375 c 0,-0.25 0,-0.265625 -0.234375,-0.265625 C 2.078125,-6 1.203125,-6 0.890625,-6 v 0.3125 c 0.203125,0 0.78125,0 1.296875,-0.265625 v 5.171875 c 0,0.359375 -0.03125,0.46875 -0.921875,0.46875 h -0.3125 V 0 c 0.34375,-0.03125 1.203125,-0.03125 1.609375,-0.03125 0.390625,0 1.265625,0 1.609375,0.03125 v -0.3125 h -0.3125 c -0.90625,0 -0.921875,-0.109375 -0.921875,-0.46875 z m 0,0"
               id="path36" />
          </g>
          <g
             id="use22"
             transform="translate(4.9812999,8.1099997)">
            <path
               d="m 4.578125,-3.1875 c 0,-0.796875 -0.046875,-1.59375 -0.390625,-2.328125 -0.453125,-0.96875 -1.28125,-1.125 -1.6875,-1.125 -0.609375,0 -1.328125,0.265625 -1.75,1.1875 -0.3125,0.6875 -0.359375,1.46875 -0.359375,2.265625 0,0.75 0.03125,1.640625 0.453125,2.40625 0.421875,0.796875 1.15625,1 1.640625,1 0.53125,0 1.296875,-0.203125 1.734375,-1.15625 0.3125,-0.6875 0.359375,-1.46875 0.359375,-2.25 z M 2.484375,0 C 2.09375,0 1.5,-0.25 1.328125,-1.203125 1.21875,-1.796875 1.21875,-2.71875 1.21875,-3.3125 c 0,-0.640625 0,-1.296875 0.078125,-1.828125 0.1875,-1.1875 0.9375,-1.28125 1.1875,-1.28125 0.328125,0 0.984375,0.1875 1.171875,1.171875 0.109375,0.5625 0.109375,1.3125 0.109375,1.9375 0,0.75 0,1.421875 -0.109375,2.0625 C 3.5,-0.296875 2.9375,0 2.484375,0 Z m 0,0"
               id="path40" />
          </g>
        </g>
      </g>
      <g
         fill="#000000"
         fill-opacity="1"
         id="g13144"
         transform="matrix(0.352778,0,0,0.352778,-0.314193,0.0458611)">
        <g
           id="use28"
           transform="translate(9.9630003,4.4949999)">
          <path
             d="M 3.515625,-1.265625 H 3.28125 c -0.015625,0.15625 -0.09375,0.5625 -0.1875,0.625 C 3.046875,-0.59375 2.515625,-0.59375 2.40625,-0.59375 H 1.125 c 0.734375,-0.640625 0.984375,-0.84375 1.390625,-1.171875 0.515625,-0.40625 1,-0.84375 1,-1.5 0,-0.84375 -0.734375,-1.359375 -1.625,-1.359375 -0.859375,0 -1.453125,0.609375 -1.453125,1.25 0,0.34375 0.296875,0.390625 0.375,0.390625 0.15625,0 0.359375,-0.125 0.359375,-0.375 0,-0.125 -0.046875,-0.375 -0.40625,-0.375 C 0.984375,-4.21875 1.453125,-4.375 1.78125,-4.375 c 0.703125,0 1.0625,0.546875 1.0625,1.109375 0,0.609375 -0.4375,1.078125 -0.65625,1.328125 L 0.515625,-0.265625 C 0.4375,-0.203125 0.4375,-0.1875 0.4375,0 h 2.875 z m 0,0"
             id="path13141" />
        </g>
      </g>
    </g>
    <g
       inkscape:label=""
       transform="translate(58.269101,152.21006)"
       id="g13517">
      <g
         clip-path="url(#clipPath1477)"
         id="g13509"
         transform="matrix(0.352778,0,0,0.352778,-0.314193,0.0458611)">
        <g
           fill="#000000"
           fill-opacity="1"
           id="g13507">
          <g
             id="g13501"
             transform="translate(0,8.1099997)">
            <path
               d="m 2.9375,-6.375 c 0,-0.25 0,-0.265625 -0.234375,-0.265625 C 2.078125,-6 1.203125,-6 0.890625,-6 v 0.3125 c 0.203125,0 0.78125,0 1.296875,-0.265625 v 5.171875 c 0,0.359375 -0.03125,0.46875 -0.921875,0.46875 h -0.3125 V 0 c 0.34375,-0.03125 1.203125,-0.03125 1.609375,-0.03125 0.390625,0 1.265625,0 1.609375,0.03125 v -0.3125 h -0.3125 c -0.90625,0 -0.921875,-0.109375 -0.921875,-0.46875 z m 0,0"
               id="path13499" />
          </g>
          <g
             id="g13505"
             transform="translate(4.9812999,8.1099997)">
            <path
               d="m 4.578125,-3.1875 c 0,-0.796875 -0.046875,-1.59375 -0.390625,-2.328125 -0.453125,-0.96875 -1.28125,-1.125 -1.6875,-1.125 -0.609375,0 -1.328125,0.265625 -1.75,1.1875 -0.3125,0.6875 -0.359375,1.46875 -0.359375,2.265625 0,0.75 0.03125,1.640625 0.453125,2.40625 0.421875,0.796875 1.15625,1 1.640625,1 0.53125,0 1.296875,-0.203125 1.734375,-1.15625 0.3125,-0.6875 0.359375,-1.46875 0.359375,-2.25 z M 2.484375,0 C 2.09375,0 1.5,-0.25 1.328125,-1.203125 1.21875,-1.796875 1.21875,-2.71875 1.21875,-3.3125 c 0,-0.640625 0,-1.296875 0.078125,-1.828125 0.1875,-1.1875 0.9375,-1.28125 1.1875,-1.28125 0.328125,0 0.984375,0.1875 1.171875,1.171875 0.109375,0.5625 0.109375,1.3125 0.109375,1.9375 0,0.75 0,1.421875 -0.109375,2.0625 C 3.5,-0.296875 2.9375,0 2.484375,0 Z m 0,0"
               id="path13503" />
          </g>
        </g>
      </g>
      <g
         fill="#000000"
         fill-opacity="1"
         id="g13515"
         transform="matrix(0.352778,0,0,0.352778,-0.314193,0.0458611)">
        <g
           id="g13513"
           transform="translate(9.9630003,4.4949999)">
          <path
             d="m 1.90625,-2.328125 c 0.546875,0 0.9375,0.375 0.9375,1.125 0,0.859375 -0.515625,1.125 -0.90625,1.125 -0.28125,0 -0.90625,-0.078125 -1.1875,-0.5 0.328125,0 0.40625,-0.234375 0.40625,-0.390625 0,-0.21875 -0.171875,-0.375 -0.390625,-0.375 -0.1875,0 -0.390625,0.125 -0.390625,0.40625 0,0.65625 0.71875,1.078125 1.5625,1.078125 0.96875,0 1.640625,-0.65625 1.640625,-1.34375 0,-0.546875 -0.4375,-1.09375 -1.203125,-1.25 0.71875,-0.265625 0.984375,-0.78125 0.984375,-1.21875 0,-0.546875 -0.625,-0.953125 -1.40625,-0.953125 -0.765625,0 -1.359375,0.375 -1.359375,0.9375 0,0.234375 0.15625,0.359375 0.359375,0.359375 0.21875,0 0.359375,-0.15625 0.359375,-0.34375 0,-0.203125 -0.140625,-0.359375 -0.359375,-0.375 0.25,-0.296875 0.71875,-0.375 0.984375,-0.375 0.3125,0 0.75,0.15625 0.75,0.75 0,0.296875 -0.09375,0.625 -0.28125,0.828125 -0.21875,0.265625 -0.421875,0.28125 -0.765625,0.3125 -0.171875,0.015625 -0.1875,0.015625 -0.21875,0.015625 -0.015625,0 -0.078125,0.015625 -0.078125,0.09375 0,0.09375 0.0625,0.09375 0.1875,0.09375 z m 0,0"
             id="path13511" />
        </g>
      </g>
    </g>
    <g
       inkscape:label=""
       transform="translate(70.151985,152.19628)"
       id="g13912">
      <g
         clip-path="url(#clipPath8837)"
         id="g13904"
         transform="matrix(0.352778,0,0,0.352778,-0.314193,0.0734219)">
        <g
           fill="#000000"
           fill-opacity="1"
           id="g13902">
          <g
             id="g13896"
             transform="translate(0,8.1099997)">
            <path
               d="m 2.9375,-6.375 c 0,-0.25 0,-0.265625 -0.234375,-0.265625 C 2.078125,-6 1.203125,-6 0.890625,-6 v 0.3125 c 0.203125,0 0.78125,0 1.296875,-0.265625 v 5.171875 c 0,0.359375 -0.03125,0.46875 -0.921875,0.46875 h -0.3125 V 0 c 0.34375,-0.03125 1.203125,-0.03125 1.609375,-0.03125 0.390625,0 1.265625,0 1.609375,0.03125 v -0.3125 h -0.3125 c -0.90625,0 -0.921875,-0.109375 -0.921875,-0.46875 z m 0,0"
               id="path13894" />
          </g>
          <g
             id="g13900"
             transform="translate(4.9812999,8.1099997)">
            <path
               d="m 4.578125,-3.1875 c 0,-0.796875 -0.046875,-1.59375 -0.390625,-2.328125 -0.453125,-0.96875 -1.28125,-1.125 -1.6875,-1.125 -0.609375,0 -1.328125,0.265625 -1.75,1.1875 -0.3125,0.6875 -0.359375,1.46875 -0.359375,2.265625 0,0.75 0.03125,1.640625 0.453125,2.40625 0.421875,0.796875 1.15625,1 1.640625,1 0.53125,0 1.296875,-0.203125 1.734375,-1.15625 0.3125,-0.6875 0.359375,-1.46875 0.359375,-2.25 z M 2.484375,0 C 2.09375,0 1.5,-0.25 1.328125,-1.203125 1.21875,-1.796875 1.21875,-2.71875 1.21875,-3.3125 c 0,-0.640625 0,-1.296875 0.078125,-1.828125 0.1875,-1.1875 0.9375,-1.28125 1.1875,-1.28125 0.328125,0 0.984375,0.1875 1.171875,1.171875 0.109375,0.5625 0.109375,1.3125 0.109375,1.9375 0,0.75 0,1.421875 -0.109375,2.0625 C 3.5,-0.296875 2.9375,0 2.484375,0 Z m 0,0"
               id="path13898" />
          </g>
        </g>
      </g>
      <g
         fill="#000000"
         fill-opacity="1"
         id="g13910"
         transform="matrix(0.352778,0,0,0.352778,-0.314193,0.0734219)">
        <g
           id="g13908"
           transform="translate(9.9630003,4.4949999)">
          <path
             d="m 3.6875,-1.140625 v -0.25 H 2.90625 V -4.5 c 0,-0.140625 0,-0.203125 -0.140625,-0.203125 -0.09375,0 -0.125,0 -0.1875,0.109375 l -2.3125,3.203125 v 0.25 h 2.0625 v 0.5625 c 0,0.25 0,0.328125 -0.578125,0.328125 H 1.5625 V 0 C 1.921875,-0.015625 2.359375,-0.03125 2.609375,-0.03125 2.875,-0.03125 3.3125,-0.015625 3.671875,0 v -0.25 h -0.1875 C 2.90625,-0.25 2.90625,-0.328125 2.90625,-0.578125 v -0.5625 z M 2.375,-3.9375 v 2.546875 H 0.53125 Z m 0,0"
             id="path13906" />
        </g>
      </g>
    </g>
    <g
       inkscape:label=""
       transform="translate(93.93429,152.21006)"
       id="g14331">
      <g
         clip-path="url(#clipPath1310)"
         id="g14323"
         transform="matrix(0.352778,0,0,0.352778,-0.314193,0.0458611)">
        <g
           fill="#000000"
           fill-opacity="1"
           id="g14321">
          <g
             id="g14315"
             transform="translate(0,8.1099997)">
            <path
               d="m 2.9375,-6.375 c 0,-0.25 0,-0.265625 -0.234375,-0.265625 C 2.078125,-6 1.203125,-6 0.890625,-6 v 0.3125 c 0.203125,0 0.78125,0 1.296875,-0.265625 v 5.171875 c 0,0.359375 -0.03125,0.46875 -0.921875,0.46875 h -0.3125 V 0 c 0.34375,-0.03125 1.203125,-0.03125 1.609375,-0.03125 0.390625,0 1.265625,0 1.609375,0.03125 v -0.3125 h -0.3125 c -0.90625,0 -0.921875,-0.109375 -0.921875,-0.46875 z m 0,0"
               id="path14313" />
          </g>
          <g
             id="g14319"
             transform="translate(4.9812999,8.1099997)">
            <path
               d="m 4.578125,-3.1875 c 0,-0.796875 -0.046875,-1.59375 -0.390625,-2.328125 -0.453125,-0.96875 -1.28125,-1.125 -1.6875,-1.125 -0.609375,0 -1.328125,0.265625 -1.75,1.1875 -0.3125,0.6875 -0.359375,1.46875 -0.359375,2.265625 0,0.75 0.03125,1.640625 0.453125,2.40625 0.421875,0.796875 1.15625,1 1.640625,1 0.53125,0 1.296875,-0.203125 1.734375,-1.15625 0.3125,-0.6875 0.359375,-1.46875 0.359375,-2.25 z M 2.484375,0 C 2.09375,0 1.5,-0.25 1.328125,-1.203125 1.21875,-1.796875 1.21875,-2.71875 1.21875,-3.3125 c 0,-0.640625 0,-1.296875 0.078125,-1.828125 0.1875,-1.1875 0.9375,-1.28125 1.1875,-1.28125 0.328125,0 0.984375,0.1875 1.171875,1.171875 0.109375,0.5625 0.109375,1.3125 0.109375,1.9375 0,0.75 0,1.421875 -0.109375,2.0625 C 3.5,-0.296875 2.9375,0 2.484375,0 Z m 0,0"
               id="path14317" />
          </g>
        </g>
      </g>
      <g
         fill="#000000"
         fill-opacity="1"
         id="g14329"
         transform="matrix(0.352778,0,0,0.352778,-0.314193,0.0458611)">
        <g
           id="g14327"
           transform="translate(9.9630003,4.4949999)">
          <path
             d="m 1.046875,-2.28125 c 0,-0.5625 0.046875,-1.078125 0.3125,-1.515625 0.234375,-0.375 0.609375,-0.625 1.0625,-0.625 0.203125,0 0.484375,0.046875 0.625,0.234375 C 2.875,-4.171875 2.71875,-4.046875 2.71875,-3.84375 c 0,0.171875 0.125,0.328125 0.328125,0.328125 0.21875,0 0.34375,-0.140625 0.34375,-0.34375 0,-0.40625 -0.296875,-0.765625 -0.984375,-0.765625 -1,0 -2.03125,0.921875 -2.03125,2.421875 0,1.796875 0.84375,2.34375 1.625,2.34375 0.84375,0 1.578125,-0.65625 1.578125,-1.5625 0,-0.890625 -0.703125,-1.546875 -1.515625,-1.546875 -0.5625,0 -0.859375,0.375 -1.015625,0.6875 z M 2,-0.078125 c -0.359375,0 -0.625,-0.203125 -0.78125,-0.515625 C 1.125,-0.796875 1.0625,-1.15625 1.0625,-1.5625 c 0,-0.6875 0.40625,-1.203125 0.96875,-1.203125 0.3125,0 0.53125,0.125 0.703125,0.375 0.171875,0.265625 0.171875,0.5625 0.171875,0.96875 0,0.390625 0,0.6875 -0.1875,0.96875 -0.15625,0.234375 -0.390625,0.375 -0.71875,0.375 z m 0,0"
             id="path14325" />
        </g>
      </g>
    </g>
    <g
       inkscape:label=""
       transform="translate(82.073455,152.21006)"
       id="g14774">
      <g
         clip-path="url(#clipPath5859)"
         id="g14766"
         transform="matrix(0.352778,0,0,0.352778,-0.314193,0.0458611)">
        <g
           fill="#000000"
           fill-opacity="1"
           id="g14764">
          <g
             id="g14758"
             transform="translate(0,8.1099997)">
            <path
               d="m 2.9375,-6.375 c 0,-0.25 0,-0.265625 -0.234375,-0.265625 C 2.078125,-6 1.203125,-6 0.890625,-6 v 0.3125 c 0.203125,0 0.78125,0 1.296875,-0.265625 v 5.171875 c 0,0.359375 -0.03125,0.46875 -0.921875,0.46875 h -0.3125 V 0 c 0.34375,-0.03125 1.203125,-0.03125 1.609375,-0.03125 0.390625,0 1.265625,0 1.609375,0.03125 v -0.3125 h -0.3125 c -0.90625,0 -0.921875,-0.109375 -0.921875,-0.46875 z m 0,0"
               id="path14756" />
          </g>
          <g
             id="g14762"
             transform="translate(4.9812999,8.1099997)">
            <path
               d="m 4.578125,-3.1875 c 0,-0.796875 -0.046875,-1.59375 -0.390625,-2.328125 -0.453125,-0.96875 -1.28125,-1.125 -1.6875,-1.125 -0.609375,0 -1.328125,0.265625 -1.75,1.1875 -0.3125,0.6875 -0.359375,1.46875 -0.359375,2.265625 0,0.75 0.03125,1.640625 0.453125,2.40625 0.421875,0.796875 1.15625,1 1.640625,1 0.53125,0 1.296875,-0.203125 1.734375,-1.15625 0.3125,-0.6875 0.359375,-1.46875 0.359375,-2.25 z M 2.484375,0 C 2.09375,0 1.5,-0.25 1.328125,-1.203125 1.21875,-1.796875 1.21875,-2.71875 1.21875,-3.3125 c 0,-0.640625 0,-1.296875 0.078125,-1.828125 0.1875,-1.1875 0.9375,-1.28125 1.1875,-1.28125 0.328125,0 0.984375,0.1875 1.171875,1.171875 0.109375,0.5625 0.109375,1.3125 0.109375,1.9375 0,0.75 0,1.421875 -0.109375,2.0625 C 3.5,-0.296875 2.9375,0 2.484375,0 Z m 0,0"
               id="path14760" />
          </g>
        </g>
      </g>
      <g
         fill="#000000"
         fill-opacity="1"
         id="g14772"
         transform="matrix(0.352778,0,0,0.352778,-0.314193,0.0458611)">
        <g
           id="g14770"
           transform="translate(9.9630003,4.4949999)">
          <path
             d="m 1.078125,-3.890625 c 0.359375,0.09375 0.5625,0.09375 0.671875,0.09375 0.921875,0 1.46875,-0.625 1.46875,-0.734375 0,-0.078125 -0.046875,-0.09375 -0.078125,-0.09375 -0.015625,0 -0.03125,0 -0.0625,0.015625 -0.171875,0.0625 -0.53125,0.203125 -1.046875,0.203125 -0.203125,0 -0.5625,-0.015625 -1.015625,-0.1875 C 0.9375,-4.625 0.921875,-4.625 0.921875,-4.625 c -0.09375,0 -0.09375,0.078125 -0.09375,0.1875 v 2.046875 c 0,0.125 0,0.203125 0.109375,0.203125 0.0625,0 0.078125,0 0.140625,-0.09375 0.296875,-0.375 0.734375,-0.4375 0.96875,-0.4375 0.421875,0 0.609375,0.328125 0.640625,0.390625 0.125,0.234375 0.171875,0.5 0.171875,0.90625 0,0.203125 0,0.609375 -0.21875,0.921875 -0.171875,0.25 -0.46875,0.421875 -0.8125,0.421875 -0.453125,0 -0.921875,-0.25 -1.09375,-0.71875 0.265625,0.015625 0.40625,-0.15625 0.40625,-0.34375 0,-0.296875 -0.265625,-0.34375 -0.359375,-0.34375 0,0 -0.34375,0 -0.34375,0.375 0,0.625 0.578125,1.25 1.40625,1.25 0.890625,0 1.671875,-0.65625 1.671875,-1.546875 0,-0.78125 -0.59375,-1.5 -1.453125,-1.5 -0.3125,0 -0.671875,0.0625 -0.984375,0.328125 z m 0,0"
             id="path14768" />
        </g>
      </g>
    </g>
  </g>
</svg>
